<svg width="91" height="35" viewBox="0 0 91 35" fill="none" xmlns="http://www.w3.org/2000/svg">
<g clip-path="url(#clip0)">
<path d="M0.00732422 27.7855H55.8955V34.0563H0.00732422V27.7855Z" fill="#4C6D73"/>
<path d="M19.1951 23.9323V6.01532H15.8V8.53817H15.7349C14.4294 6.56566 12.1119 5.53015 9.5979 5.53015C3.10213 5.53015 0.00146484 10.6729 0.00146484 15.0386C0.00146484 19.7606 3.49447 24.3849 9.5979 24.3849C12.0461 24.3849 14.4286 23.3501 15.7349 21.151H15.8V23.9323H19.1951V23.9323ZM15.8657 15.006C15.8657 18.434 13.1238 21.3124 9.56576 21.3124C5.97485 21.3124 3.39657 18.24 3.39657 15.006C3.39657 12.1921 5.42034 8.60261 9.59864 8.60261C13.0909 8.60261 15.8657 11.1899 15.8657 15.006Z" fill="#4C6D73"/>
<path d="M26.9752 23.9323V14.1335C26.9752 11.5788 27.8892 10.2203 28.9661 9.63812C29.7821 9.2174 30.8919 8.99148 31.4143 8.99148V5.53015C30.5653 5.56274 28.2479 5.62718 26.8115 7.63228H26.7465V6.01532H23.5801V23.9323H26.9752Z" fill="#4C6D73"/>
<path d="M44.8924 6.01529L38.4616 14.6505H38.3966V0H35.0015V23.9323H38.3966V14.6505H38.4616L45.7084 23.9323H49.9518L42.3462 14.4564L48.907 6.01529H44.8924Z" fill="#4C6D73"/>
<path d="M68.5557 23.9323V13.3246C68.5228 11.3195 68.1312 9.89663 67.413 8.73223C66.1074 6.72714 63.8221 5.53015 61.0151 5.53015C60.297 5.53015 57.555 5.53015 55.727 7.92338H55.662V6.01532H52.4956V23.9323H55.8907V14.1653C55.8907 10.5759 57.8166 8.60261 60.6564 8.60261C65.1613 8.60261 65.1613 12.8069 65.1613 14.1979V23.9323H68.5557Z" fill="#4C6D73"/>
<path d="M90.3307 16.4297C90.3628 16.203 90.4286 15.2979 90.4286 14.7157C90.3957 9.47667 86.1195 5.53091 81.223 5.53091C76.1314 5.53091 71.9531 9.5737 71.9531 14.9424C71.9531 20.0199 76.0335 24.3857 81.158 24.3857C83.9649 24.3857 88.1111 22.9302 89.8412 18.3059H86.4461C85.63 19.8584 83.802 21.3139 81.2888 21.3139C79.0034 21.3139 76.1965 19.891 75.3475 16.4304H90.3307V16.4297ZM75.3475 13.8424C75.5112 11.2225 77.9265 8.60338 81.1909 8.60338C84.4552 8.60338 86.8706 11.2233 87.0335 13.8424H75.3475Z" fill="#4C6D73"/>
<path d="M65.8363 29.3802C65.2362 28.2818 64.119 27.7285 63.069 27.7285C61.2933 27.7285 59.9175 29.1573 59.9175 30.9165C59.9175 32.626 61.2761 34.0719 63.0772 34.0719C64.5778 34.0719 66.2287 32.9653 66.2615 30.9165H62.3605V31.7342H65.2362C64.6443 33.2371 63.2857 33.2541 63.1101 33.2541C61.9427 33.2541 60.818 32.2631 60.818 30.9165C60.818 29.6365 61.8187 28.5462 63.1018 28.5462C64.0106 28.5462 64.527 29.0995 64.7856 29.3802H65.8363Z" fill="#4C6D73"/>
<path d="M71.6496 33.9556L69.9241 31.6757C70.3239 31.6757 71.6915 31.4194 71.6915 29.8009C71.6915 29.2891 71.5166 28.7269 71.1243 28.3558C70.7992 28.0506 70.3493 27.844 69.4824 27.844H67.5737V33.9556H68.4743V31.1223H68.4914L70.5257 33.9556H71.6496ZM68.4735 28.661H69.4241C70.4412 28.661 70.791 29.2883 70.791 29.8009C70.791 30.9823 69.457 30.9986 69.0901 30.9986H68.4735V28.661Z" fill="#4C6D73"/>
<path d="M79.2213 30.9157C79.2213 29.1728 77.8455 27.7277 76.0115 27.7277C74.1275 27.7277 72.8018 29.2388 72.8018 30.8994C72.8018 32.5757 74.1686 34.0712 76.0115 34.0712C77.8455 34.0712 79.2213 32.5845 79.2213 30.9157ZM78.3208 30.9246C78.3208 31.8824 77.6041 33.2534 76.0115 33.2534C74.4279 33.2534 73.7023 31.8987 73.7023 30.8994C73.7023 29.9247 74.419 28.5455 76.0115 28.5455C77.5458 28.5455 78.3208 29.8424 78.3208 30.9246Z" fill="#4C6D73"/>
<path d="M84.7861 27.844H83.8863V31.9571C83.8863 33.0889 83.0523 33.2541 82.719 33.2541C82.3857 33.2541 81.5516 33.0889 81.5516 31.9571V27.844H80.6519V31.9816C80.6519 32.6756 80.885 33.1793 81.2766 33.5504C81.66 33.8644 82.1517 34.0704 82.719 34.0704C83.2854 34.0704 83.7779 33.8637 84.1613 33.5504C84.5529 33.1785 84.7861 32.6749 84.7861 31.9816V27.844Z" fill="#4C6D73"/>
<path d="M87.3532 31.5424H88.2365C89.7125 31.5424 90.4127 30.7824 90.4127 29.6921C90.4127 28.6018 89.7125 27.8418 88.2365 27.8418H86.4526V33.9534H87.3532V31.5424ZM87.3532 28.6595H88.2365C89.2618 28.6595 89.5122 29.2373 89.5122 29.6921C89.5122 30.1461 89.2618 30.7246 88.2365 30.7246H87.3532V28.6595Z" fill="#4C6D73"/>
</g>
<defs>
<clipPath id="clip0">
<rect width="90.4274" height="34.0741" fill="white"/>
</clipPath>
</defs>
</svg>
